<svg xmlns="http://www.w3.org/2000/svg" width="23.191" height="18.916" viewBox="0 0 23.191 18.916">
  <g id="view-password" transform="translate(-340.982 -497.96)">
    <g id="eye" transform="translate(340.982 500.991)">
      <path id="Path_2258" data-name="Path 2258" d="M11.6,98.725c-4.431,0-8.449,2.424-11.414,6.362a.918.918,0,0,0,0,1.1c2.965,3.942,6.983,6.366,11.414,6.366s8.449-2.424,11.414-6.362a.918.918,0,0,0,0-1.1C20.045,101.149,16.026,98.725,11.6,98.725Zm.318,11.779a4.878,4.878,0,1,1,4.55-4.55A4.881,4.881,0,0,1,11.913,110.5Zm-.147-2.249a2.626,2.626,0,1,1,2.453-2.453A2.622,2.622,0,0,1,11.766,108.256Z" transform="translate(0 -98.725)" fill="#fff"/>
    </g>
    <line id="Line_42" data-name="Line 42" x1="18.209" y2="18.209" transform="translate(343.472 498.314)" fill="none" stroke="#fff" stroke-width="1"/>
    <line id="Line_43" data-name="Line 43" x1="15.172" y2="14.97" transform="translate(344.916 501.211)" fill="none" stroke="#fbb815" stroke-width="1"/>
  </g>
</svg>
