<svg xmlns="http://www.w3.org/2000/svg" width="96.241" height="55.369" viewBox="0 0 96.241 55.369">
  <g id="icon-logo" transform="translate(0.329 0.25)">
    <g id="Group_1483" data-name="Group 1483" transform="translate(0 0)">
      <path id="Path_2272" data-name="Path 2272" d="M251.479,335.519c-5.452.929-10.659,6.713-11.133,12.431-.569,6.845,1.993,12.1,8.018,15.565.953.548,1.923,1.066,2.829,1.707a12.13,12.13,0,0,1-7.755-3.492,17.39,17.39,0,0,1,6.306-29.063c.261-.091.509-.223.762-.337a10.549,10.549,0,0,0,2.878-.952,18.04,18.04,0,0,0,8.8-6.122,24.344,24.344,0,0,0,3.381-5.282,5.134,5.134,0,0,1,.707-1.125c-.505,7.208-4.04,12.289-10.662,15.2-.423.186-.84.389-1.259.585A10.605,10.605,0,0,0,251.479,335.519Z" transform="translate(-188.493 -311.993)" fill="#fff" stroke="#fff" stroke-width="1"/>
      <path id="Path_2273" data-name="Path 2273" d="M213.8,334.722a18.874,18.874,0,0,1-9.225-6.963,19.405,19.405,0,0,1-2.9-8.349c.86,0,.827.68,1.03,1.066,2.453,4.684,5.825,8.426,10.741,10.609a2.427,2.427,0,0,0,1.33.374,10.658,10.658,0,0,0,2.881.966,17.513,17.513,0,0,1,10.945,9.762,17.213,17.213,0,0,1-5.083,20.584,14.934,14.934,0,0,1-7.553,2.844c1.365-.734,2.474-1.295,3.55-1.913,6.833-3.929,9.935-11.088,7.7-18.2-1.638-5.2-5.3-8.425-10.528-9.9A11.96,11.96,0,0,0,213.8,334.722Z" transform="translate(-183.816 -312.065)" fill="#fff" stroke="#fff" stroke-width="1"/>
      <path id="Path_2274" data-name="Path 2274" d="M219.589,332.424a10.663,10.663,0,0,1-2.881-.966c2.23-7.573,9.518-12.483,17.875-12.041,7.8.412,14.032,5.082,16.058,12.031a10.55,10.55,0,0,1-2.878.951,45.666,45.666,0,0,0-2.06-4.122,14.2,14.2,0,0,0-24.063.019A42.8,42.8,0,0,0,219.589,332.424Z" transform="translate(-185.752 -312.062)" fill="#fff" stroke="#fff" stroke-width="0.5"/>
      <path id="Path_2275" data-name="Path 2275" d="M235.3,340.659a5.522,5.522,0,1,1,5.638-5.522A5.51,5.51,0,0,1,235.3,340.659Z" transform="translate(-187.434 -313.378)" fill="#fff" stroke="#fff" stroke-width="1"/>
      <path id="Path_2276" data-name="Path 2276" d="M211.959,353.187a5.379,5.379,0,0,1,5.512-5.48,5.563,5.563,0,1,1-5.512,5.48Z" transform="translate(-185.14 -315.707)" fill="#fff" stroke="#fff" stroke-width="1"/>
      <path id="Path_2277" data-name="Path 2277" d="M258.784,353.249a5.5,5.5,0,1,1-5.448-5.542A5.38,5.38,0,0,1,258.784,353.249Z" transform="translate(-189.751 -315.707)" fill="#fff" stroke="#fff" stroke-width="1"/>
      <path id="Path_2278" data-name="Path 2278" d="M198.576,340.653a5.515,5.515,0,1,1,5.613-5.437A5.528,5.528,0,0,1,198.576,340.653Z" transform="translate(-182.705 -313.38)" fill="#fff" stroke="#fff" stroke-width="1"/>
      <path id="Path_2279" data-name="Path 2279" d="M272.02,340.653a5.515,5.515,0,1,1,5.661-5.525A5.542,5.542,0,0,1,272.02,340.653Z" transform="translate(-192.164 -313.38)" fill="#fff" stroke="#fff" stroke-width="1"/>
      <path id="Path_2280" data-name="Path 2280" d="M211.959,316.491a5.4,5.4,0,0,1,5.48-5.511,5.557,5.557,0,0,1-.071,11.113A5.439,5.439,0,0,1,211.959,316.491Z" transform="translate(-185.14 -310.98)" fill="#fff" stroke="#fff" stroke-width="0.5"/>
      <path id="Path_2281" data-name="Path 2281" d="M258.784,316.511a5.436,5.436,0,0,1-5.428,5.582,5.557,5.557,0,0,1-.031-11.113A5.4,5.4,0,0,1,258.784,316.511Z" transform="translate(-189.751 -310.98)" fill="#fff" stroke="#fff" stroke-width="0.5"/>
      <path id="Path_2282" data-name="Path 2282" d="M253.468,337.778a10.6,10.6,0,0,1,2.873-.885,17.388,17.388,0,0,0,5.669,8.021,15.242,15.242,0,0,0,21.347-3.676,48.416,48.416,0,0,0,2.785-4.837,8.727,8.727,0,0,1-1.032,4.449c-3.038,5.815-7.964,8.8-14.437,9.109a17.371,17.371,0,0,1-16.554-10.19A18,18,0,0,1,253.468,337.778Z" transform="translate(-190.483 -314.252)" fill="#fff" stroke="#fff" stroke-width="0.5"/>
      <path id="Path_2283" data-name="Path 2283" d="M211.162,336.947a11.958,11.958,0,0,1,2.88.884A16.327,16.327,0,0,1,201.29,349.55c-7.129,1.612-13.071-.724-17.632-6.45a13.891,13.891,0,0,1-2.48-6.407c.716.3.809.9,1.044,1.356,2.178,4.266,5.108,7.687,9.933,9.06,7.742,2.2,14.874-1.065,18.214-8.372C210.64,338.143,210.9,337.543,211.162,336.947Z" transform="translate(-181.179 -314.289)" fill="#fff" stroke="#fff" stroke-width="0.5"/>
      <path id="Path_2284" data-name="Path 2284" d="M253.781,372.157H253.7l.038.125Z" transform="translate(-190.513 -318.853)" fill="#fff" stroke="#fff" stroke-width="1"/>
    </g>
  </g>
</svg>
